<svg width="279" height="271" viewBox="0 0 279 271" fill="none" xmlns="http://www.w3.org/2000/svg">
<path opacity="0.0526316" d="M21.6049 218.595C27.4722 226.401 46.2247 239.463 74.2964 229.264C109.386 216.516 122.957 182.725 154.275 165.204C177.39 152.272 239.501 132.86 275.216 154.31" stroke="white" stroke-width="1.45842"/>
<path opacity="0.105263" d="M15.8176 202.23C20.8369 210.606 38.1213 225.557 67.1052 218.349C103.335 209.339 120.364 177.151 153.342 162.999C177.682 152.554 241.482 139.741 274.759 164.807" stroke="white" stroke-width="1.45842"/>
<path opacity="0.157895" d="M11.4455 185.645C15.5616 194.5 31.1886 211.176 60.7672 207.037C97.7405 201.863 118.041 171.632 152.317 161.004C177.616 153.161 242.406 147.087 272.88 175.494" stroke="white" stroke-width="1.45842"/>
<path opacity="0.210526" d="M8.50388 168.988C11.6718 178.225 25.4701 196.443 55.3193 195.418C92.6309 194.138 115.98 166.194 151.18 159.208C177.159 154.052 242.229 154.783 269.568 186.22" stroke="white" stroke-width="1.45842"/>
<path opacity="0.263158" d="M6.99239 152.41C9.17747 161.927 20.9958 181.487 50.7887 183.589C88.0297 186.215 114.172 160.865 149.909 157.596C176.285 155.184 240.922 162.713 264.825 196.836" stroke="white" stroke-width="1.45842"/>
<path opacity="0.315789" d="M6.89501 136.058C8.07327 145.752 17.7823 166.441 47.1923 171.645C83.9548 178.149 112.603 155.671 148.486 156.156C174.971 156.514 238.466 170.758 258.671 207.192" stroke="white" stroke-width="1.45842"/>
<path opacity="0.368421" d="M8.18021 120.081C8.33873 129.845 15.832 151.435 44.537 159.684C80.4182 169.996 111.26 150.635 146.895 154.869C173.197 157.993 234.856 178.796 251.142 217.143" stroke="white" stroke-width="1.45842"/>
<path opacity="0.421053" d="M10.8014 104.62C9.93843 114.347 15.1339 136.602 42.8193 147.807C77.426 161.813 110.122 145.782 145.12 153.717C170.951 159.573 230.098 186.708 242.286 226.547" stroke="white" stroke-width="1.45842"/>
<path opacity="0.473684" d="M14.6972 89.8125C12.8223 99.396 15.663 122.072 42.0255 136.11C74.9786 153.656 109.171 141.131 143.148 152.68C168.226 161.205 224.212 194.373 232.169 235.268" stroke="white" stroke-width="1.45842"/>
<path opacity="0.526316" d="M19.7924 75.7876C16.926 85.1226 17.3808 107.972 42.1316 124.688C73.0701 145.583 108.385 136.7 140.968 151.738C165.017 162.837 217.23 201.676 220.869 243.178" stroke="white" stroke-width="1.45842"/>
<path opacity="0.578947" d="M25.9987 62.6665C22.1722 71.6507 20.2362 94.422 43.1041 113.634C71.689 137.648 107.739 132.505 138.572 150.867C161.329 164.419 209.195 208.503 208.476 250.158" stroke="white" stroke-width="1.45842"/>
<path opacity="0.631579" d="M33.2153 50.5608C28.4706 59.0958 24.165 81.5401 44.8994 103.037C70.8175 129.908 107.207 128.561 135.952 150.045C157.168 165.902 200.164 214.748 195.095 256.099" stroke="white" stroke-width="1.45842"/>
<path opacity="0.684211" d="M41.3307 39.5703C35.7199 47.5626 29.0917 69.4338 47.4656 92.9801C70.4329 122.413 106.764 124.878 133.106 149.249C152.548 167.236 190.203 220.309 180.839 260.904" stroke="white" stroke-width="1.45842"/>
<path opacity="0.736842" d="M50.2234 29.7825C43.8079 37.1445 34.9299 58.2031 50.7418 83.541C70.5068 115.213 106.381 121.462 130.031 148.453C147.487 168.374 179.388 225.092 165.832 264.486" stroke="white" stroke-width="1.45842"/>
<path opacity="0.789474" d="M59.7633 21.2727C52.6134 27.9238 41.5829 47.939 54.6597 74.7909C71.0057 108.356 106.031 118.32 126.73 147.635C142.007 169.272 167.805 229.014 150.205 266.775" stroke="white" stroke-width="1.45842"/>
<path opacity="0.842105" d="M69.8134 14.101C62.0075 19.9683 48.9452 38.7209 59.1435 66.7926C71.8915 101.882 105.683 115.453 123.204 146.771C136.136 169.886 155.548 231.997 134.098 267.712" stroke="white" stroke-width="1.45842"/>
<path opacity="0.894737" d="M80.2311 8.31379C71.8546 13.333 56.9037 30.6174 64.1119 59.6014C73.1222 95.8313 105.31 112.86 119.462 145.838C129.907 170.178 142.72 233.978 117.654 267.255" stroke="white" stroke-width="1.45842"/>
<path opacity="0.947368" d="M90.8695 3.94167C82.0143 8.0578 65.3385 23.6847 69.4776 53.2634C74.6515 90.2367 104.883 110.537 115.51 144.813C123.354 170.112 129.427 234.902 101.02 265.376" stroke="white" stroke-width="1.45842"/>
<path d="M101.58 1.00002C92.3425 4.16799 74.1247 17.9662 75.1493 47.8155C76.43 85.1271 104.374 108.476 111.36 143.676C116.516 169.656 115.784 234.725 84.3475 262.064" stroke="white" stroke-width="1.45842"/>
</svg>
