<svg width="258" height="251" viewBox="0 0 258 251" fill="none" xmlns="http://www.w3.org/2000/svg">
<path d="M4.4767 64.2153C-13.4127 -0.610076 52.8562 -7.20852 100.68 12.3654C128.584 22.432 146.908 -8.87439 181.475 3.61958C216.041 16.1136 174.603 55.4696 227.494 75.6682C280.385 95.8668 254.564 186.24 208.337 187.281C162.109 188.322 174.811 203.523 128.584 238.298C82.3559 273.073 4.4768 224.763 23.8424 173.746C43.2081 122.729 23.8422 134.39 4.4767 64.2153Z" stroke="white" stroke-width="1.2494"/>
<path d="M103.97 114.665C101.906 108.491 111.574 98.5306 119.348 102.781C126.466 106.674 133.716 104.049 138.505 105.784C151.114 110.353 146.476 112.771 152.112 118.197C158.971 124.8 162.243 142.089 146.476 142.089C133.507 142.089 137.388 148.388 127.677 151.179C117.966 153.97 106.953 149.219 106.953 136.712C106.953 132.015 107.407 124.949 103.97 114.665Z" stroke="white" stroke-width="1.2494"/>
<path d="M13.5203 68.4868C-2.93043 8.99331 58.1929 2.08922 102.376 20.2701C128.39 29.7754 145.708 1.07644 177.567 12.5924C210.138 24.3659 172.045 60.3639 220.64 79.2196C269.347 98.1822 246.17 181.911 202.712 182.858C159.508 183.804 171.408 198.196 128.5 230.063C85.5919 261.93 13.7916 217.58 31.3967 170.064C49.0019 123.258 31.4378 133.217 13.5203 68.4868Z" stroke="white" stroke-width="1.2494"/>
<path d="M22.5639 72.7584C7.55182 18.5968 63.5296 11.3871 104.072 28.175C128.196 37.119 144.507 11.0274 173.66 21.5653C204.234 32.6183 169.487 65.2584 213.786 82.771C258.308 100.498 237.776 177.583 197.087 178.435C156.906 179.286 168.005 192.869 128.416 221.829C88.828 250.788 23.1064 210.398 38.9511 166.383C54.7957 123.788 39.0334 132.044 22.5639 72.7584Z" stroke="white" stroke-width="1.2494"/>
<path d="M31.6075 77.0302C18.0341 28.2006 68.8664 20.6852 105.768 36.0801C128.003 44.4629 143.307 20.9786 169.752 30.5384C198.33 40.871 166.928 70.1531 206.932 86.3228C247.269 102.813 229.382 173.255 191.462 174.012C154.305 174.769 164.601 187.542 128.333 213.594C92.0641 239.646 32.4213 203.216 46.5054 162.701C60.5895 124.317 46.6291 130.871 31.6075 77.0302Z" stroke="white" stroke-width="1.2494"/>
<path d="M40.6512 81.3024C28.5165 37.8047 74.2033 29.9836 107.464 43.9855C127.809 51.807 142.106 30.9301 165.845 39.5119C192.427 49.1239 164.37 75.0481 200.078 89.8748C236.23 105.129 220.988 168.927 185.837 169.589C151.704 170.252 161.198 182.216 128.249 205.36C95.3003 228.504 41.7363 196.034 54.0599 159.021C66.3834 124.847 54.2249 129.698 40.6512 81.3024Z" stroke="white" stroke-width="1.2494"/>
<path d="M49.6951 85.7911C38.999 47.6253 79.5402 39.4986 109.16 52.1075C127.616 59.3677 140.906 41.0982 161.937 48.7019C186.523 57.5935 161.812 80.1596 193.224 93.6434C225.191 107.662 212.595 164.815 180.212 165.383C149.103 165.951 157.795 177.106 128.166 197.342C98.5366 217.579 51.0513 189.069 61.6144 155.556C72.1775 125.594 61.8207 128.742 49.6951 85.7911Z" stroke="white" stroke-width="1.2494"/>
<path d="M58.739 90.5357C49.4816 57.7018 84.8773 49.2695 110.856 60.4854C127.422 67.1843 139.706 51.5222 158.03 58.1478C180.62 66.3189 159.254 85.5271 186.37 97.6679C214.153 110.451 204.201 160.96 174.588 161.433C146.502 161.906 154.392 172.252 128.082 189.581C101.773 206.91 60.3665 182.359 69.1691 152.348C77.9717 126.596 69.4167 128.042 58.739 90.5357Z" stroke="white" stroke-width="1.2494"/>
<path d="M67.7833 95.2945C59.9645 67.7926 90.2146 59.0546 112.552 68.8775C127.229 75.0152 138.506 61.9604 154.123 67.608C174.717 75.0586 156.697 90.9088 179.517 101.707C203.114 113.253 195.808 157.119 168.963 157.497C143.901 157.876 150.989 167.412 127.999 181.833C105.01 196.255 69.682 175.664 76.7241 149.153C83.7661 127.613 77.013 127.357 67.7833 95.2945Z" stroke="white" stroke-width="1.2494"/>
<path d="M76.8278 100.074C70.4477 77.9039 95.5523 68.8602 114.249 77.2901C127.036 82.8666 137.306 72.4191 150.217 77.0887C168.814 83.8188 154.139 96.311 172.663 105.766C192.076 116.077 187.414 153.298 163.339 153.582C141.3 153.866 147.587 162.592 127.917 174.106C108.247 185.62 78.9977 168.99 84.2793 145.98C89.5608 128.65 84.6095 126.691 76.8278 100.074Z" stroke="white" stroke-width="1.2494"/>
<path d="M85.873 104.883C80.9316 88.0454 100.891 78.6961 115.947 85.733C126.844 90.7481 136.107 82.9081 146.311 86.5996C162.912 92.6092 151.583 101.743 165.811 109.855C181.039 118.93 179.022 149.508 157.716 149.697C138.701 149.886 144.185 157.803 127.835 166.41C111.484 175.016 88.3142 162.345 91.8352 142.836C95.3563 129.718 92.2068 126.056 85.873 104.883Z" stroke="white" stroke-width="1.2494"/>
<path d="M94.9196 109.739C91.4168 98.2327 106.23 88.5777 117.645 94.2216C126.654 98.6755 134.91 93.4428 142.406 96.1563C157.011 101.445 149.027 107.222 158.96 113.991C170.003 121.829 170.631 145.763 152.094 145.858C136.102 145.952 140.784 153.06 127.754 158.759C114.723 164.457 97.632 155.747 99.3925 139.738C101.153 130.831 99.8054 125.467 94.9196 109.739Z" stroke="white" stroke-width="1.2494"/>
</svg>
