<svg width="240" height="265" viewBox="0 0 240 265" fill="none" xmlns="http://www.w3.org/2000/svg">
<path d="M50.8733 1.72296L84.9582 31.1405H102.001L127.209 1.72296L149.933 15.5457L184.018 6.33053L180.467 57.3682H203.19L209.936 90.3301L194.314 126.836L225.914 140.304L238.34 233.519H171.236L162.359 256.203H113.362L90.6391 240.253L38.4465 264L21.4041 246.987V202.684L4.36164 178.937L21.4041 140.304V101.672L-7 90.3301V31.1405L50.8733 1.72296Z" stroke="white" stroke-width="1.37062"/>
<path d="M102.847 121.976L109.011 118.828H117.141L122.814 124.783L124.288 132.217L127.654 133.658L128.978 143.633H121.83L113.246 144.354L107.687 146.895L105.872 145.074V140.333V129.524L102.847 128.31V121.976Z" stroke="white" stroke-width="1.37062"/>
<path d="M55.1084 10.7309L86.8085 37.7645H103.165L126.653 10.8388L147.847 23.8273L179.366 15.6069L176.146 63.0046L197.38 63.1154L203.658 93.9254L189.288 128.007L218.182 140.439L229.378 226.484L167.105 226.511L158.581 247.478L112.926 247.673L91.8807 232.881L43.6331 254.731L27.9016 238.844V197.766L12.1701 175.015L27.7853 139.307L27.6689 103.6L1.44977 92.8868V38.0066L55.1084 10.7309Z" stroke="white" stroke-width="1.37062"/>
<path d="M59.3434 19.7392L88.6587 44.3888H104.33L126.097 19.9551L145.76 32.1093L174.715 24.8837L171.824 68.6412L191.569 68.863L197.379 97.5211L184.262 129.178L210.451 140.574L220.416 219.448L162.975 219.504L154.804 238.753L112.489 239.144L93.1223 225.508L48.8197 245.462L34.3992 230.702V192.849L19.9787 171.093L34.1665 138.31L33.9338 105.528L9.89954 95.4438V44.8731L59.3434 19.7392Z" stroke="white" stroke-width="1.37062"/>
<path d="M63.5784 28.7472L90.5088 51.0129H105.495L125.54 29.0711L143.674 40.391L170.064 34.1602L167.503 74.2777L185.759 74.6103L191.101 101.117L179.236 130.349L202.719 140.709L211.453 212.413L158.844 212.496L151.026 230.028L112.053 230.614L94.3638 218.136L54.0063 236.192L40.8967 222.559V187.932L27.7871 167.171L40.5476 137.313L40.1985 107.456L18.3492 98.0006V51.7393L63.5784 28.7472Z" stroke="white" stroke-width="1.37062"/>
<path d="M67.8135 37.7553L92.359 57.637H106.659L124.984 38.187L141.588 48.6727L165.412 43.4367L163.181 79.9141L179.948 80.3576L184.822 104.712L174.211 131.52L194.988 140.844L202.491 205.377L154.713 205.488L147.248 221.303L111.616 222.085L95.6054 210.763L59.1929 226.923L47.3942 214.416V183.015L35.5956 163.249L46.9288 136.316L46.4634 109.384L26.799 100.557V58.6056L67.8135 37.7553Z" stroke="white" stroke-width="1.37062"/>
<path d="M72.0485 46.7635L94.2092 64.2612H107.824L124.428 47.3032L139.502 56.9546L160.761 52.7133L158.86 85.5507L174.138 86.1051L178.544 108.308L169.185 132.691L187.256 140.979L193.529 198.342L150.583 198.481L143.47 212.578L111.18 213.556L96.847 203.391L64.3795 217.654L53.8918 206.273V178.097L43.4041 159.327L53.31 135.319L52.7282 111.312L35.2488 103.114V65.472L72.0485 46.7635Z" stroke="white" stroke-width="1.37062"/>
<path d="M76.2836 55.7715L96.0595 70.8853H108.989L123.872 56.4192L137.416 65.2363L156.11 61.9898L154.539 91.1872L168.327 91.8524L172.265 111.903L164.159 133.862L179.525 141.114L184.567 191.307L146.452 191.473L139.692 203.853L110.743 205.026L98.0886 196.018L69.5661 208.385L60.3893 198.13V173.18L51.2126 155.405L59.6912 134.322L58.9931 113.24L43.6985 105.671V72.3382L76.2836 55.7715Z" stroke="white" stroke-width="1.37062"/>
<path d="M80.5185 64.7795L97.9096 77.5093H110.153L123.315 65.5352L135.33 73.5181L151.459 71.2663L150.217 96.8236L162.517 97.5997L165.987 115.498L159.133 135.033L171.793 141.249L175.604 184.271L142.322 184.465L135.914 195.129L110.306 196.497L99.3301 188.646L74.7525 199.115L66.8868 189.987V168.263L59.021 151.482L66.0723 133.325L65.2578 115.168L52.1482 108.228V79.2044L80.5185 64.7795Z" stroke="white" stroke-width="1.37062"/>
<path d="M84.7536 73.7876L99.7598 84.1334H111.318L122.759 74.6512L133.244 81.7998L146.807 80.5429L145.896 102.46L156.706 103.347L159.708 119.094L154.107 136.204L164.062 141.384L166.642 177.236L138.191 177.458L132.136 186.404L109.87 187.967L100.572 181.273L79.9391 189.846L73.3843 181.844V163.346L66.8295 147.56L72.4535 132.328L71.5226 117.096L60.598 110.785V86.0707L84.7536 73.7876Z" stroke="white" stroke-width="1.37062"/>
<path d="M88.9885 82.7959L101.61 90.7577H112.483L122.203 83.7674L131.158 90.0818L142.156 89.8196L141.574 108.097L150.896 109.095L153.43 122.69L149.081 137.375L156.33 141.519L157.68 170.201L134.06 170.45L128.358 177.679L109.433 179.438L101.813 173.901L85.1257 180.577L79.8818 173.701V158.428L74.638 143.638L78.8346 131.331L77.7874 119.024L69.0477 113.342V92.9371L88.9885 82.7959Z" stroke="white" stroke-width="1.37062"/>
<path d="M93.2236 91.8039L103.46 97.3818H113.647L121.646 92.8834L129.072 98.3635L137.505 99.0961L137.253 113.733L145.085 114.842L147.151 126.285L144.055 138.546L148.598 141.654L148.717 163.165L129.93 163.442L124.58 168.954L108.997 170.909L103.055 166.528L90.3122 171.308L86.3794 165.558V153.511L82.4465 139.716L85.2158 130.334L84.0522 120.952L77.4974 115.899V99.8033L93.2236 91.8039Z" stroke="white" stroke-width="1.37062"/>
<path d="M97.4586 100.812L105.31 104.006H114.812L121.09 101.999L126.986 106.645L132.854 108.373L132.931 119.37L139.275 120.589L140.873 129.88L139.029 139.717L140.867 141.789L139.755 156.13L125.799 156.435L120.802 160.229L108.56 162.379L104.296 159.155L95.4988 162.039L92.8769 157.415V148.594L90.255 135.794L91.597 129.337L90.317 122.88L85.9472 118.455V106.67L97.4586 100.812Z" stroke="white" stroke-width="1.37062"/>
<path d="M101.694 109.82L107.161 110.63H115.977L120.534 111.115L124.9 114.927L128.202 117.649L128.61 125.006L133.465 126.337L134.594 133.476L134.003 140.888L133.135 141.924L130.793 149.094L121.669 149.427L117.024 151.504L108.124 153.85L105.538 151.783L100.685 152.769L99.3744 149.273V143.676L98.0635 131.872L97.9782 128.34L96.5819 124.808L94.3969 121.012V113.536L101.694 109.82Z" stroke="white" stroke-width="1.37062"/>
</svg>
